<?xml version="1.0" encoding="UTF-8"?>
<svg width="220px" height="220px" viewBox="0 0 220 220" version="1.1" xmlns="http://www.w3.org/2000/svg" xmlns:xlink="http://www.w3.org/1999/xlink">
    <title>Logomark-Black</title>
    <g id="Logomark-Black" stroke="none" stroke-width="1" fill="none" fill-rule="evenodd">
        <path d="M110,20 C159.705714,20 200,60.2942858 200,110 C200,159.705714 159.705714,200 110,200 C60.2942858,200 20,159.705714 20,110 C20,60.2942858 60.2942858,20 110,20 Z M150,75.0093962 C150,70.55543 144.61429,68.3248755 141.464466,71.4743051 L110,102.934829 L78.535534,71.4743051 C75.3857095,68.3248755 70,70.55543 70,75.0093962 L70,145 C70,147.761424 72.2385763,150 75,150 L145,150 C147.761424,150 150,147.761424 150,145 Z M110,117.075193 L132.928932,140.001253 L87.0710677,140.001253 L110,117.075193 Z M140,87.0789516 L140,132.931071 L117.071068,110.005011 L140,87.0789516 Z M80,87.0789516 L102.928932,110.005011 L80,132.931071 L80,87.0789516 Z" id="Combined-Shape" fill="#31303A" fill-rule="nonzero"></path>
    </g>
</svg>